<svg xmlns="http://www.w3.org/2000/svg" viewBox="0 0 64 64">
  <defs>
    <linearGradient id="g" x1="0" y1="0" x2="0" y2="1">
      <stop offset="0%" stop-color="#fff5d0"/>
      <stop offset="50%" stop-color="#c8977a"/>
      <stop offset="100%" stop-color="#4a1020"/>
    </linearGradient>
  </defs>
  <rect width="64" height="64" fill="#0d0709"/>
  <!-- Lilith sigil inspired: diamond with cardinal crescents -->
  <g fill="none" stroke="url(#g)" stroke-width="1.6" stroke-linecap="round">
    <path d="M 32 8 L 56 32 L 32 56 L 8 32 Z"/>
    <circle cx="32" cy="32" r="2.2" fill="url(#g)" stroke="none"/>
    <path d="M 30 6 A 3 3 0 1 0 30 12 A 2 2 0 1 1 30 6 Z" fill="url(#g)" stroke="none"/>
    <path d="M 34 58 A 3 3 0 1 1 34 52 A 2 2 0 1 0 34 58 Z" fill="url(#g)" stroke="none"/>
    <path d="M 58 30 A 3 3 0 1 1 52 30 A 2 2 0 1 0 58 30 Z" fill="url(#g)" stroke="none"/>
    <path d="M 6 34 A 3 3 0 1 0 12 34 A 2 2 0 1 1 6 34 Z" fill="url(#g)" stroke="none"/>
    <path d="M 32 16 L 32 48 M 16 32 L 48 32" stroke-width="0.8" opacity="0.65"/>
  </g>
</svg>
